<svg xmlns="http://www.w3.org/2000/svg" xmlns:xlink="http://www.w3.org/1999/xlink" viewBox="0 0 438.13 376.1"><defs><style>.cls-1{fill:url(#linear-gradient);}.cls-2{fill:url(#linear-gradient-2);}.cls-3{fill:url(#linear-gradient-3);}.cls-4{fill:#b6b6ce;}.cls-5{fill:#e5e5ec;}.cls-6{fill:#d36762;}.cls-7{fill:#282e4e;}.cls-8{fill:#ff897f;}.cls-9{fill:#bdbed1;}.cls-10{fill:#d3d5e2;}.cls-11{fill:url(#linear-gradient-4);}.cls-12,.cls-15,.cls-19,.cls-22{fill:none;}.cls-12{stroke:#ba6561;}.cls-12,.cls-15{stroke-linecap:round;stroke-linejoin:round;}.cls-13{fill:url(#linear-gradient-5);}.cls-14{fill:url(#linear-gradient-6);}.cls-15,.cls-19{stroke:#f96786;}.cls-16{fill:url(#linear-gradient-7);}.cls-17{fill:#464f96;}.cls-18{fill:url(#linear-gradient-8);}.cls-19,.cls-22{stroke-miterlimit:10;}.cls-20{fill:url(#linear-gradient-9);}.cls-21{fill:url(#linear-gradient-10);}.cls-22{stroke:#7954b3;}</style><linearGradient id="linear-gradient" x1="178.13" y1="237.83" x2="356.44" y2="146.06" gradientUnits="userSpaceOnUse"><stop offset="0" stop-color="#7954b3"/><stop offset="0.05" stop-color="#7153ae"/><stop offset="0.21" stop-color="#5951a1"/><stop offset="0.37" stop-color="#4b4f99"/><stop offset="0.5" stop-color="#464f96"/><stop offset="0.64" stop-color="#4a4f98"/><stop offset="0.78" stop-color="#56519f"/><stop offset="0.92" stop-color="#6952aa"/><stop offset="1" stop-color="#7954b3"/></linearGradient><linearGradient id="linear-gradient-2" x1="129.99" y1="197.55" x2="115.56" y2="142.05" gradientUnits="userSpaceOnUse"><stop offset="0" stop-color="#dc911b"/><stop offset="1" stop-color="#e7b142"/></linearGradient><linearGradient id="linear-gradient-3" x1="363.33" y1="178.23" x2="406.61" y2="178.23" xlink:href="#linear-gradient-2"/><linearGradient id="linear-gradient-4" x1="337.6" y1="351.14" x2="320.95" y2="318.4" gradientUnits="userSpaceOnUse"><stop offset="0.15" stop-color="#464f96"/><stop offset="0.4" stop-color="#4a4f98"/><stop offset="0.63" stop-color="#55509f"/><stop offset="0.85" stop-color="#6852a9"/><stop offset="1" stop-color="#7954b3"/></linearGradient><linearGradient id="linear-gradient-5" x1="217.71" y1="338.07" x2="158.88" y2="384.69" gradientUnits="userSpaceOnUse"><stop offset="0" stop-color="#cd536c"/><stop offset="1" stop-color="#8b1f5a"/></linearGradient><linearGradient id="linear-gradient-6" x1="192.41" y1="342.8" x2="172.42" y2="259.96" xlink:href="#linear-gradient-4"/><linearGradient id="linear-gradient-7" x1="160.38" y1="287.58" x2="174.38" y2="259.83" gradientUnits="userSpaceOnUse"><stop offset="0" stop-color="#464f96"/><stop offset="0.28" stop-color="#4a4f98"/><stop offset="0.56" stop-color="#56519f"/><stop offset="0.84" stop-color="#6a53ab"/><stop offset="1" stop-color="#7954b3"/></linearGradient><linearGradient id="linear-gradient-8" x1="397.34" y1="336.28" x2="453.37" y2="336.28" xlink:href="#linear-gradient-5"/><linearGradient id="linear-gradient-9" x1="81.24" y1="245.64" x2="99" y2="312.8" xlink:href="#linear-gradient-5"/><linearGradient id="linear-gradient-10" x1="81.11" y1="296.88" x2="108.02" y2="398.63" xlink:href="#linear-gradient-7"/></defs><g id="OBJECT"><path class="cls-1" d="M160,124.56c0-1.7,14.59-64.13,90.26-64.13,50.89,0,96.36,33.25,96.36,81.09,0,33.26-24.77,53.61-57.34,67.53-11.54,5.09-11.88,14.59-11.88,25.78v19h-56v-37c0-14.93.67-27.14,15.94-37,20.7-13.24,40-14.26,40-38.35,0-16.28-12.21-27.82-27.48-27.82-24.43,0-36.31,20.36-40,35Zm128.26,187.3a38.85,38.85,0,1,1-39-39A38.74,38.74,0,0,1,288.21,311.86Z" transform="translate(-22.31 -60.43)"/><path class="cls-2" d="M95.24,147.23c-.12-.36-1.68-14.6,14.26-20.22,10.73-3.78,22.78-.15,26.33,9.93,2.47,7-1.23,13.14-7.07,18.49-2,1.93-1.41,4-.58,6.32l1.41,4-11.8,4.16L115,162.12c-1.11-3.15-1.87-5.77.62-9,3.37-4.33,7.38-6,5.59-11.06a6,6,0,0,0-7.86-3.82c-5.15,1.82-6.14,7-5.84,10.34Zm41,29.94a8.68,8.68,0,1,1-11.13-5.32A8.66,8.66,0,0,1,136.19,177.17Z" transform="translate(-22.31 -60.43)"/><path class="cls-3" d="M367.81,154.84c.13-.35,8-12.3,23.89-6.43,10.66,3.94,17.61,14.44,13.9,24.46-2.58,7-9.35,9.32-17.25,9.71-2.82.17-3.62,2.13-4.49,4.48l-1.48,4-11.73-4.34,2.87-7.75c1.16-3.13,2.25-5.64,6.21-6.52,5.37-1.16,9.5.12,11.37-4.93a6,6,0,0,0-3.61-8c-5.11-1.89-9.18,1.45-11.1,4.22ZM380.16,204a8.69,8.69,0,1,1-5.15-11.2A8.66,8.66,0,0,1,380.16,204Z" transform="translate(-22.31 -60.43)"/><path class="cls-4" d="M172.23,173.08c.07-.19,4.33-6.64,12.89-3.48,5.76,2.13,9.51,7.8,7.5,13.21-1.39,3.76-5,5-9.31,5.23-1.52.1-1.95,1.16-2.42,2.42l-.8,2.15-6.33-2.34,1.55-4.18c.63-1.69,1.21-3.05,3.35-3.52,2.9-.63,5.13.07,6.14-2.66a3.27,3.27,0,0,0-2-4.3c-2.76-1-5,.79-6,2.28Zm6.66,26.55a4.69,4.69,0,1,1-2.78-6A4.66,4.66,0,0,1,178.89,199.63Z" transform="translate(-22.31 -60.43)"/><path class="cls-5" d="M355.74,95c0-.24.89-9.34,11.59-10.72,7.2-.94,14.24,2.93,15.11,9.7.61,4.7-2.52,8-6.87,10.6-1.54.93-1.41,2.28-1.2,3.86l.35,2.69-7.92,1-.68-5.23c-.28-2.11-.4-3.85,1.58-5.53,2.68-2.25,5.4-2.75,5-6.15a3.85,3.85,0,0,0-4.4-3.43c-3.46.44-4.76,3.54-5,5.67Zm21.58,24.14a5.54,5.54,0,1,1-6.24-4.8A5.52,5.52,0,0,1,377.32,119.18Z" transform="translate(-22.31 -60.43)"/><path class="cls-6" d="M319.73,361.44l21.62,45.39-.57,6.64c3.12,1.65,10.93-9.2,10.93-9.2l-2.26-2.77s-6.74-35.05-12.32-40.06Z" transform="translate(-22.31 -60.43)"/><path class="cls-7" d="M340.84,411.93s-1.51,2.43-3.36,4.83-3.75,5.11-2.93,6.37,9.45-4.73,15.7-9,5.41-4.39,5.3-5.09-4.17-5.41-4.17-5.41-4.66,6.05-7.42,7.86S340.84,411.93,340.84,411.93Z" transform="translate(-22.31 -60.43)"/><path class="cls-8" d="M339.2,361.44l-17.61-4.59,5.07,57.72-5.07,5h16.18L337,415C337.35,409.73,340.14,371.57,339.2,361.44Z" transform="translate(-22.31 -60.43)"/><path class="cls-8" d="M340.35,277.37s7.09,16.33,8.16,23.42-9.45,17.61-9.45,17.61Z" transform="translate(-22.31 -60.43)"/><path class="cls-8" d="M319,241.92l-1.14,3.37s-2.73,0-3,.86,1.43,2.29,1.43,2.29-1.83,7.23.21,10.56,14.29,1.51,14.29,1.51a10.79,10.79,0,0,0,7.84-6.12c2.79-5.59,4.83-9.89,3.76-15.47-.63-3.27-6.48-5.53-12.16-5.36A12.29,12.29,0,0,0,319,241.92Z" transform="translate(-22.31 -60.43)"/><polygon class="cls-8" points="301.29 199.44 300.54 206.85 312.89 205.13 313.87 197.32 301.29 199.44"/><path class="cls-9" d="M330.82,264.64s-9.8,0-13.78,9.08c-5.43,12.43-.18,30.58-.18,30.58l-1,9.84s1.72,4.26,27.9-.25l-3.41-9.45s3.11-21.9,2.33-28.81C341.64,266.34,330.82,264.64,330.82,264.64Z" transform="translate(-22.31 -60.43)"/><path class="cls-7" d="M324,235.52a15.11,15.11,0,0,0,2.45,8.45c2.69,3.92,4.19,4.51,4.19,4.51s-.65,2.25-.27,2.9,1.88-2.31,3.76-1.88,2,4.13.21,6.28A4.83,4.83,0,0,1,330,257.5s-.81,5.75,2.36,10.31A12,12,0,0,0,347,272a10.71,10.71,0,0,0,6.39-12.19c-.86-4.78-7.09-8.44-7.09-8.44s2.42-10.56-1.72-15.8-15.73-5.19-20.14-3.26c0,0-4.24-1.55-6.93,1.29a6.43,6.43,0,0,0,1.08,9.59S320.79,237.27,324,235.52Z" transform="translate(-22.31 -60.43)"/><path class="cls-10" d="M324.08,271.82l-15.31,18,6.6,7.13,18.75-14.69a7.29,7.29,0,0,0,.95-10.59h0A7.29,7.29,0,0,0,324.08,271.82Z" transform="translate(-22.31 -60.43)"/><path class="cls-8" d="M301.65,263.55s1.43,22.41,1.86,26.93,2.4,8.09,6.34,8.37a8.14,8.14,0,0,0,5.52-1.89l-6.42-34Z" transform="translate(-22.31 -60.43)"/><path class="cls-8" d="M304.9,254.1a3.55,3.55,0,0,0-1.18,1.29A3.25,3.25,0,0,0,301.9,257a7.92,7.92,0,0,0-1,1.68c-.57,1.22,1,5.91,1,5.91l7.22-.6a33.7,33.7,0,0,0,1.63-4.17c.32-1.36-.65-3-.93-3.51s-.79-.35-1,.15a7.9,7.9,0,0,0,.18,2.43l-.51.72a3.18,3.18,0,0,1-.71-2.29c.11-1.43,2.15-4.94,1.44-5.91s-2.44,2.15-2.44,2.15A6,6,0,0,0,304.9,254.1Z" transform="translate(-22.31 -60.43)"/><path class="cls-11" d="M315.86,314.14l1.86,47.3H339.2s6.55-39.25,4.56-47.55C343.76,313.89,326,316.47,315.86,314.14Z" transform="translate(-22.31 -60.43)"/><path class="cls-7" d="M323.82,417.37s-2.59,1.21-5.45,2.21-5.95,2.22-5.95,3.72,10.5,1.22,18.07,1.08,7.85-.36,8.14-1-1.45-7.17-1.45-7.17-7.21,2.51-10.51,2.51S323.82,417.37,323.82,417.37Z" transform="translate(-22.31 -60.43)"/><path class="cls-12" d="M327.93,259.57a10.88,10.88,0,0,1-4.45,1.43" transform="translate(-22.31 -60.43)"/><line class="cls-12" x1="279.98" y1="203.43" x2="284.26" y2="202.86"/><rect class="cls-8" x="151.71" y="359.16" width="13.06" height="7.71"/><path class="cls-7" d="M174,426.37s-.22,8.35,0,9.71c0,0,6.49.36,9.77.36s12.63.35,15.56-.36,1.78-1.93,1.07-3.14-13.63-6.57-13.63-6.57S179.37,427.52,174,426.37Z" transform="translate(-22.31 -60.43)"/><path class="cls-13" d="M167.52,315.83s-.43,11.34,0,27.19,4.35,79.14,4.35,79.14l17,.79,6.28-107.12Z" transform="translate(-22.31 -60.43)"/><path class="cls-8" d="M185.52,227.62l1.14,3.35s2.71,0,3,.86-1.42,2.28-1.42,2.28,1.82,7.21-.22,10.53-14.24,1.5-14.24,1.5A10.75,10.75,0,0,1,166,240c-2.78-5.57-4.82-9.85-3.75-15.42.63-3.25,6.46-5.51,12.12-5.34A12.26,12.26,0,0,1,185.52,227.62Z" transform="translate(-22.31 -60.43)"/><polygon class="cls-8" points="158.64 185.07 159.39 192.45 147.08 190.74 146.1 182.96 158.64 185.07"/><path class="cls-7" d="M181.12,221.62a13.06,13.06,0,0,1-6.07,4.79s1.46,5.89.32,6.54-1.07-.91-3.35-1.12-2.5,2.71-1.79,5.35a4.3,4.3,0,0,0,4.5,3.07c1-.21,1.28,1-.71,2.78a36.54,36.54,0,0,1-5.2,3.61s-9-8.28-10.58-12.51,0-6.58,0-6.58-1.14-5.49,3.36-8.28,13.63-3.43,17.34-3.07,3.35,2.36,3.35,2.36a3,3,0,0,1,2.29,2.14,3.78,3.78,0,0,1-.79,3.6A16.21,16.21,0,0,0,181.12,221.62Z" transform="translate(-22.31 -60.43)"/><path class="cls-14" d="M169.23,250a62.82,62.82,0,0,0-7.31,14.69c-2.32,7.49,5.6,51.17,5.6,51.17h27.62s-.84-42.39-2.87-49.76a25.18,25.18,0,0,0-10.57-14Z" transform="translate(-22.31 -60.43)"/><line class="cls-15" x1="155.23" y1="256.07" x2="154.57" y2="358.64"/><line class="cls-15" x1="149.37" y1="358.64" x2="167.11" y2="358.64"/><path class="cls-16" d="M163.6,262.84c-3.92,7.12-11.25,21.59-15.35,36.93l11.56,4.71,18.47-33.77a8.33,8.33,0,0,0,.31-7.47,1.42,1.42,0,0,0-.08-.18C175.59,257,166.86,256.9,163.6,262.84Z" transform="translate(-22.31 -60.43)"/><path class="cls-8" d="M182.23,322.6s2.93.56,2.93,0-1.46-1.28-3.07-1.31c-.44,0-.87,0-1.28,0l0-.32,1.24-.25s2.67,1,2.84.46-1.81-2-3-1.87a20.27,20.27,0,0,0-2.31.39l-1.28.11c1-.65,1.92-1,1.69-1.4s-.81-.4-2.53.27a12.77,12.77,0,0,0-2.64,1.44l-.54.05-14.5-15.72-11.56-4.71s-3.32,7.49,1.82,13.6,22.59,14.23,22.59,14.23h0c1.91.83,7.54-1.41,7.54-1.41v-.05l1.08-.18s2.93.56,2.93,0-1.45-1.29-3.07-1.31h-.75v-.09l1.64-.28s2.93.56,2.93,0-1.46-1.28-3.07-1.31c-.45,0-.89,0-1.31,0l0-.12Z" transform="translate(-22.31 -60.43)"/><path class="cls-12" d="M175.8,244.63s2.79,2.14,5.26,2" transform="translate(-22.31 -60.43)"/><path class="cls-12" d="M174.31,320.2s1.51,3.26,1.3,4.66" transform="translate(-22.31 -60.43)"/><path class="cls-8" d="M400.66,259.49s-7.81,14.11-13.34,25.26l-14.88-12.19-.93-1.07a7.12,7.12,0,0,0-1.12-2.19c-1.12-1.39-1.37-4.36-2.09-2.88-.39.79-.07,2.28.31,3.51l-3.1-.21a16.83,16.83,0,0,0-5.22-1c-2,.14-1.5.9-1.39,1s2.68.45,4.52,1.13l-.06.14a14,14,0,0,0-4.2-.69c-2,.15-1.5.91-1.39,1.06a39.56,39.56,0,0,1,4.94,1.29l0,.09a12.25,12.25,0,0,0-3.76-.56c-2,.14-1.49.9-1.38,1s2.51.43,4.34,1.07a10,10,0,0,0-2.69-.12c-1.95.27-1.43,1-1.31,1.14s1.89.22,3.58.58l7,2.43c2.22,4,10.07,17.21,17.5,20.58,2.26,1,5.35-.18,6.9-2.11L401.53,286Z" transform="translate(-22.31 -60.43)"/><path class="cls-8" d="M404.73,393.42l2.33,25.47L403,423.6s1.25,3.87,13.66-.64l-1.31-5.62s1.74-17.8,1.31-23.33Z" transform="translate(-22.31 -60.43)"/><path class="cls-8" d="M434.42,393.42l5.67,25.47.58,4.94a10.4,10.4,0,0,0,12.7,2l-5.28-8.4-2.18-24Z" transform="translate(-22.31 -60.43)"/><path class="cls-17" d="M403.43,422.78s-8.08,6.15-8.23,7.38.59,1.6,2.62,1.82,12.3-1.31,15.94-2,3.78-1.38,3.78-1.38a15,15,0,0,0-1.15-6.8s-3,2.82-10.66,2.44A2.61,2.61,0,0,1,403.43,422.78Z" transform="translate(-22.31 -60.43)"/><path class="cls-17" d="M440.31,420.74s.07,7.93,1.16,10.11,6.33,3.71,8.95,4.48,8.95,1.2,9.93-1-7-8.52-7-8.52a39.22,39.22,0,0,1-7.53.5C443.22,426,440.31,420.74,440.31,420.74Z" transform="translate(-22.31 -60.43)"/><path class="cls-18" d="M439.51,327.66a55.74,55.74,0,0,0-7.64-20.07L429.7,296.9c2-5.48,8.41-24,8.35-36.14l-15.42-4.46-8.5-.3s-5.14,1-13.47,3.49c0,0-3.78,15-3.28,22.23A67.85,67.85,0,0,0,400,295h0l-.19,13-2,105.11,21.39,1.68-.8-75.51,1.68.69L433,416.56l20.41-2.62S440.93,335.2,439.51,327.66Z" transform="translate(-22.31 -60.43)"/><path class="cls-15" d="M411.05,257.14s-2.35,2.15-1,3.91,4.71-.36,4.71-.36a7.8,7.8,0,0,0,6.7,1.65c3.69-1,4.5-5.2,4.5-5.2" transform="translate(-22.31 -60.43)"/><path class="cls-8" d="M438.29,260.76s-6.45,7.08-6.81,14.35c-.28,5.85,11.73,18.2,15.81,23.38l-15.53,14-.54.09a8.19,8.19,0,0,0-1.79-.67,6.9,6.9,0,0,0-3.69,0c-.16.2,0,.51.73.63a8.5,8.5,0,0,0,1.38.13l.65.35-2.61.43a18.49,18.49,0,0,0-3.62.38c-1.49.4-3,1.55-2.73,2.06s2-.29,2.89-.73l2.67,0,.09.15a13.34,13.34,0,0,0-2.43.33c-1.49.4-3,1.54-2.73,2.05s2.06-.29,2.89-.72l3.34-.05.05.07a12.6,12.6,0,0,0-2,.3c-1.49.4-3,1.55-2.73,2.06s2-.29,2.89-.73l2.93,0h0a8.49,8.49,0,0,0-.88.18c-1.49.4-3,1.54-2.73,2.05s2.05-.29,2.89-.73l1.69,0h0s5,.55,7.14-2.68c3.59-1.69,20.17-12,22.14-15.56C460.49,296.64,438.29,260.76,438.29,260.76Z" transform="translate(-22.31 -60.43)"/><path class="cls-7" d="M404.81,241.91s-2.16,7-1.9,11.66,4.75,3.75,5.86,3.34,2.79,1.56,4.23.93-.48-4.2-.48-4.2Z" transform="translate(-22.31 -60.43)"/><path class="cls-8" d="M412.22,251.29l.25,8.76s.87.67,3.37.71,6.21-2.38,6.21-2.38l-.48-8.81Z" transform="translate(-22.31 -60.43)"/><path class="cls-8" d="M426.77,238.53a4.4,4.4,0,0,0-1.88.25,77.85,77.85,0,0,0,.41-8L405,229.57S403.7,240,404.78,246a11.47,11.47,0,0,0,4.22,6.6,7.56,7.56,0,0,0,8,1,11.12,11.12,0,0,0,6-5.79c0-.13.1-.26.14-.38a11.09,11.09,0,0,0,4.13-2.44C429.66,242.69,430,238.75,426.77,238.53Z" transform="translate(-22.31 -60.43)"/><path class="cls-7" d="M412,234.47c3.92,1.75,9.11.8,9.11.8a9.48,9.48,0,0,0-.2,4.74c.63,2.11,1.89,2.31,1.89,2.31s1.52-3.45,3.53-3.12,1.33,4.24-.2,5.88a4.58,4.58,0,0,1-3.08,1.63s-2.06,2.51-1.45,5c0,0,.38,5.4.48,6.65,0,0,.79.93,2.79-.14s4.62,1,8.19-1.24,3.12-5.58,1.2-10.23a47.54,47.54,0,0,1-2.64-10.31s-.14-6.68-2-10.09-5.22-4.73-9.07-5.5a11.28,11.28,0,0,0-6.75.67s-8.17,1-10.86,5.83c-4.79,8.68,1.47,12.1,1.47,12.1a19.19,19.19,0,0,0,3.37-9.13A10.41,10.41,0,0,0,412,234.47Z" transform="translate(-22.31 -60.43)"/><path class="cls-19" d="M401.53,286s5.61-1.9,9-1.9,12.43,3,12.43,3" transform="translate(-22.31 -60.43)"/><path class="cls-15" d="M414.75,260.69a43.66,43.66,0,0,0-1,9.69" transform="translate(-22.31 -60.43)"/><path class="cls-15" d="M409.86,333.86s7.75,2,10.23,6.13" transform="translate(-22.31 -60.43)"/><line class="cls-15" x1="409.92" y1="351.78" x2="430.41" y2="349.37"/><line class="cls-15" x1="375.59" y1="348.52" x2="396.86" y2="350.64"/><path class="cls-12" d="M447.29,298.49a32.37,32.37,0,0,1,6.08,1.65" transform="translate(-22.31 -60.43)"/><path class="cls-12" d="M387.32,284.75a37.26,37.26,0,0,1,0,7.54" transform="translate(-22.31 -60.43)"/><path class="cls-12" d="M412.52,254.3s4,.83,8.4-3.38" transform="translate(-22.31 -60.43)"/><path class="cls-8" d="M78.58,392.73l2.55,23.66-2.55,12.33s-.63.9,5,1.79,8.65-1.4,8.65-1.4l-2-13.11.89-21.24Z" transform="translate(-22.31 -60.43)"/><polygon class="cls-8" points="89.09 333.19 94.05 354.69 95.58 364.86 116.57 365.37 104.48 354.69 100.54 331.28 89.09 333.19"/><path class="cls-17" d="M80.24,421.3a5.7,5.7,0,0,0,4.62,3.91c5.49.59,6.16-3.68,6.16-3.68s1.94,7.7,2,9.48-3.86,4.07-7.79,4.07a8.56,8.56,0,0,1-7.6-3.81C76.61,429.74,80.24,421.3,80.24,421.3Z" transform="translate(-22.31 -60.43)"/><path class="cls-17" d="M116.8,418a32.9,32.9,0,0,0,0,6.36c.39,1.91.83,3.12,1.28,3.24s7.82.46,9.6.55,10,.42,12.53,0,2.93-.55,3.31-1.63-11.12-6.49-11.12-6.49a23.34,23.34,0,0,1-6.88,1.23C121.32,421.47,118.57,417.91,116.8,418Z" transform="translate(-22.31 -60.43)"/><polygon class="cls-8" points="69.78 177.86 69.78 186.23 59.6 185.61 57.99 173.82 69.78 177.86"/><path class="cls-8" d="M147.05,248.1a9.83,9.83,0,0,0-4.2-.15l0-.46c1.83-.34,5.35-.89,3.55-1.43-2.08-.63-5.38.3-5.38.3l-3.14-.85c.88-1.26,1.62-3.94.89-3.57s-3.34,4-4.08,4.92L121,261.65h0l-19.57-17.6c-2.1,2.23-2.71,13,.38,18.17s19.48,11.23,19.48,11.23c6.52-.19,14.61-15.37,17-20.15l3.31-.07s.93,0,1.55-.11h0c1.89-.19,4.36-.46,2.84-1.06a8,8,0,0,0-2.92-.39l0-.42c1.81-.27,5.48-.67,3.68-1.3a9.24,9.24,0,0,0-3.77-.2v-.29C144.47,249.2,149,248.78,147.05,248.1Z" transform="translate(-22.31 -60.43)"/><path class="cls-8" d="M95.29,214.39s3.64,12.56,3.94,18.13-3.27,8.83-7.94,8.83a16.94,16.94,0,0,1-8.67-2.83l-5.84-10.73a8.69,8.69,0,0,1,2.93-11.47,30.41,30.41,0,0,1,5.17-2.68C91.06,211.23,95.29,214.39,95.29,214.39Z" transform="translate(-22.31 -60.43)"/><path class="cls-8" d="M78.62,228.34s-3.24-1.13-4.29.91,1.46,5.2,3.69,6.25,5.5,0,5.5,0Z" transform="translate(-22.31 -60.43)"/><path class="cls-20" d="M113.39,299.74s-5,3-15.69,3.62a125.69,125.69,0,0,1-13.48-.08c-5.77-.3-10.14-.82-10.14-.82L75.72,282l-8.21-33.6c3.62-2.87,14-5.3,14-5.3s4.69,3.61,9.26,3.16c1.57-.15,1.32-3.64,1.32-3.64s5.89-.37,8.55.65a2.67,2.67,0,0,1,1,.55c6.63,6.61,4.86,37.12,4.86,37.12Z" transform="translate(-22.31 -60.43)"/><path class="cls-7" d="M93.83,214a12.23,12.23,0,0,1-3.5,6c-3,3.11-5.88,3.28-5.88,3.28a7.21,7.21,0,0,1-2,2.55l-1.24.84a10.37,10.37,0,0,1,.51,4.7s-2.46-3.56-4.76-3.31-3.27,2.94-1.75,5a8.11,8.11,0,0,0,5.32,2.9l.8,5.59a6.72,6.72,0,0,1-4-.34l-.12-.05c-1.13-.5-2.43,1.14-4.8,1.19s-2.83-1.41-4.81-.79-5.77,1.3-7.07-2.71,1.87-5.2.85-7.58.28-4.18,2.37-5.31,0-7.07,3.11-9.45,3.91-2.6,4.59-4.07,3.57-2.94,6.19-2.83c3.28.13,2.55-3.14,7.15-2.69,5.43.53,6.5,2.81,6.5,2.81a8.37,8.37,0,0,1,5.21,2.31c4.46,3.89,3.62,9.11,1.51,12.75C98,224.8,95.19,215.45,93.83,214Z" transform="translate(-22.31 -60.43)"/><path class="cls-8" d="M67.89,247.62l-18,19.2h0L35,253.25c-.81-.89-3.76-4.28-4.48-4.56s.2,2.31,1.18,3.49l-3,1.11s-3.38-.65-5.39.15c-1.75.7,1.81.95,3.65,1.13V255a9.76,9.76,0,0,0-4.17.49c-1.9.86,2.66.88,4.22,1v.29a9.17,9.17,0,0,0-3.74.51c-1.74.78,1.95.87,3.78,1v.43a8,8,0,0,0-2.87.63c-1.47.73,1,.79,2.91.82h0c.63,0,1.56,0,1.56,0L32,260c2.78,4.55,12.13,19,18.64,18.62,0,0,19.08-10.11,21.73-15.49S70.16,249.67,67.89,247.62Z" transform="translate(-22.31 -60.43)"/><path class="cls-21" d="M127.94,393.36l-5,.81-12.34,2L97.66,328l-1.78-2.3v70.47H75.79s-5.35-49.6-5.35-64.62,3.94-32.88,3.94-32.88c19.72,6,38.06-1.47,38.06-1.47.19.46.36,1,.56,1.48C120.22,319.7,127.94,393.36,127.94,393.36Z" transform="translate(-22.31 -60.43)"/><path class="cls-12" d="M49.88,266.82a42.44,42.44,0,0,1,4.26,5.32" transform="translate(-22.31 -60.43)"/><path class="cls-12" d="M121,261.65a11.54,11.54,0,0,0,0,5.78" transform="translate(-22.31 -60.43)"/><path class="cls-12" d="M92.08,241.35s-7.07,1-10.39-4.55" transform="translate(-22.31 -60.43)"/><line class="cls-15" x1="54.26" y1="221.03" x2="57.99" y2="222.29"/><path class="cls-22" d="M72.06,311.84a10.3,10.3,0,0,0,7.6-9" transform="translate(-22.31 -60.43)"/><path class="cls-22" d="M73.82,301.42s21,6.78,39.57-1.68" transform="translate(-22.31 -60.43)"/><path class="cls-22" d="M95.88,325.69s1.51-4.58,5.37-6.73" transform="translate(-22.31 -60.43)"/><path class="cls-22" d="M109.44,301.3s2.28,6.92,6.47,8.38" transform="translate(-22.31 -60.43)"/><path class="cls-22" d="M75.18,390.37s7.26,1.09,20.7,0" transform="translate(-22.31 -60.43)"/><path class="cls-22" d="M127.26,387.19a106,106,0,0,1-17.81,2.73" transform="translate(-22.31 -60.43)"/><path class="cls-15" d="M78.8,243.75A16.92,16.92,0,0,0,89.57,248c6.38,0,4.34-5.47,4.34-5.47" transform="translate(-22.31 -60.43)"/><path class="cls-15" d="M84.11,269a139.14,139.14,0,0,1,17.57-2.22" transform="translate(-22.31 -60.43)"/></g></svg>